<svg width="5013" height="2536" viewBox="0 0 5013 2536" fill="none" xmlns="http://www.w3.org/2000/svg">
<path d="M2255.51 0H2534.64C3040.27 0 3303.45 622.787 2939.78 990.651C2836.1 1095.52 2692.55 1161.68 2534.64 1161.68H2458.08V1027.76H2534.64C2922.23 1027.76 3126.4 548.569 2847.27 264.604C2767.52 183.932 2657.46 133.915 2534.64 133.915H2320.91V272.671H2534.64C2802.61 272.671 2942.97 603.426 2749.97 798.652C2694.15 855.122 2619.18 889.004 2534.64 889.004H2188.52V545.342H2320.91V755.089H2534.64C2686.17 755.089 2765.92 567.93 2655.86 458.216C2623.96 425.948 2580.9 406.586 2534.64 406.586H2051.35V1161.68H1918.96V272.671C2008.28 272.671 2099.2 272.671 2188.52 272.671V0H2255.51Z" fill="#121212"/>
<path d="M2189.24 1154.04H2321.98V1020.99H2189.24V1154.04Z" fill="#6452EA"/>
<path d="M1918.96 133.045H2051.71V0H1918.96V133.045Z" fill="#FF7468"/>
<path d="M301.007 2308.84H59.269V1626.92H303.004C371.597 1626.92 430.644 1640.57 480.145 1667.87C529.647 1694.95 567.717 1733.91 594.355 1784.75C621.214 1835.58 634.644 1896.4 634.644 1967.21C634.644 2038.25 621.214 2099.29 594.355 2150.35C567.717 2201.4 529.425 2240.58 479.479 2267.89C429.756 2295.19 370.265 2308.84 301.007 2308.84ZM203.446 2185.31H295.013C337.633 2185.31 373.483 2177.76 402.563 2162.67C431.864 2147.35 453.841 2123.71 468.491 2091.75C483.364 2059.56 490.8 2018.05 490.8 1967.21C490.8 1916.82 483.364 1875.65 468.491 1843.68C453.841 1811.72 431.975 1788.19 402.896 1773.09C373.816 1758 337.966 1750.45 295.346 1750.45H203.446V2185.31Z" fill="#FF6464"/>
<path d="M858.984 2308.84H704.485L939.896 1626.92H1125.69L1360.77 2308.84H1206.27L1035.46 1782.75H1030.13L858.984 2308.84ZM849.328 2040.8H1214.27V2153.34H849.328V2040.8ZM1333.55 1745.79V1626.92H1893.61V1745.79H1684.84V2308.84H1542.33V1745.79H1333.55ZM2020.06 2308.84H1865.56L2100.97 1626.92H2286.77L2521.85 2308.84H2367.35L2196.53 1782.75H2191.2L2020.06 2308.84ZM2010.4 2040.8H2375.34V2153.34H2010.4V2040.8ZM3211.01 2308.84V1626.92H3355.19V2189.97H3647.54V2308.84H3211.01ZM3877.96 2308.84H3723.46L3958.87 1626.92H4144.67L4379.74 2308.84H4225.25L4054.43 1782.75H4049.1L3877.96 2308.84ZM3868.3 2040.8H4233.24V2153.34H3868.3V2040.8ZM4352.27 1626.92H4513.77L4669.26 1920.6H4675.92L4831.42 1626.92H4992.91L4744.18 2067.77V2308.84H4601V2067.77L4352.27 1626.92Z" fill="#121212"/>
<path d="M2603.92 2308.84V1626.92H2872.96C2924.69 1626.92 2968.75 1636.79 3005.15 1656.55C3041.56 1676.09 3069.31 1703.28 3088.4 1738.13C3107.71 1772.76 3117.37 1812.71 3117.37 1858C3117.37 1903.28 3107.6 1943.24 3088.06 1977.87C3068.53 2012.5 3040.23 2039.47 3003.16 2058.78C2966.31 2078.09 2921.69 2087.75 2869.3 2087.75H2697.82V1972.21H2845.99C2873.74 1972.21 2896.61 1967.44 2914.59 1957.89C2932.79 1948.12 2946.33 1934.69 2955.21 1917.6C2964.31 1900.29 2968.86 1880.42 2968.86 1858C2968.86 1835.36 2964.31 1815.6 2955.21 1798.73C2946.33 1781.64 2932.79 1768.43 2914.59 1759.11C2896.38 1749.56 2873.3 1744.79 2845.33 1744.79H2748.1V2308.84H2603.92Z" fill="#8073E5"/>
</svg>
